<svg width="164" height="37" viewBox="0 0 164 37" fill="none" xmlns="http://www.w3.org/2000/svg">
<path d="M9.29861 27.1136C7.56533 27.1136 6.01451 26.8194 4.64613 26.231C3.30056 25.6191 2.22867 24.7953 1.43045 23.7597C0.655037 22.7006 0.221718 21.512 0.130493 20.194H6.63028C6.7215 20.8295 7.00658 21.3237 7.48551 21.6768C7.96444 22.0298 8.55741 22.2064 9.2644 22.2064C9.81175 22.2064 10.2451 22.0887 10.5644 21.8533C10.8836 21.618 11.0433 21.312 11.0433 20.9354C11.0433 20.4411 10.781 20.0763 10.2565 19.841C9.73193 19.6056 8.86529 19.3467 7.65656 19.0643C6.28818 18.7818 5.14787 18.4641 4.23562 18.1111C3.32337 17.758 2.52515 17.1814 1.84096 16.3812C1.17958 15.5809 0.84889 14.4983 0.84889 13.1332C0.84889 11.9564 1.15677 10.8972 1.77254 9.95579C2.38831 8.99081 3.28916 8.22588 4.47509 7.66102C5.68382 7.09615 7.13202 6.81371 8.81968 6.81371C11.3284 6.81371 13.3011 7.44919 14.7379 8.72014C16.1747 9.99109 17.0071 11.6622 17.2352 13.7333H11.1801C11.0661 13.0979 10.7924 12.6154 10.3591 12.2859C9.94859 11.9328 9.38984 11.7563 8.68284 11.7563C8.13549 11.7563 7.71358 11.8622 7.41709 12.074C7.14342 12.2859 7.00658 12.5801 7.00658 12.9566C7.00658 13.4274 7.26885 13.7922 7.7934 14.0511C8.31794 14.2864 9.16177 14.5336 10.3249 14.7925C11.7161 15.0984 12.8678 15.4397 13.78 15.8163C14.7151 16.1929 15.5247 16.8048 16.2089 17.6521C16.9159 18.4759 17.2694 19.6056 17.2694 21.0413C17.2694 22.1946 16.9387 23.2302 16.2773 24.1481C15.6388 25.066 14.7151 25.7956 13.5064 26.3369C12.3204 26.8547 10.9179 27.1136 9.29861 27.1136Z" fill="url(#paint0_linear_1_61)"/>
<path d="M29.4944 27.1136C27.5787 27.1136 25.8568 26.7018 24.3288 25.878C22.8236 25.0542 21.6377 23.8774 20.771 22.3476C19.9044 20.8177 19.4711 19.0172 19.4711 16.946C19.4711 14.8984 19.9044 13.1096 20.771 11.5798C21.6605 10.0499 22.8578 8.87313 24.363 8.04936C25.8911 7.2256 27.6129 6.81371 29.5287 6.81371C31.4444 6.81371 33.1548 7.2256 34.6601 8.04936C36.1881 8.87313 37.3854 10.0499 38.252 11.5798C39.1415 13.1096 39.5862 14.8984 39.5862 16.946C39.5862 18.9937 39.1415 20.7942 38.252 22.3476C37.3854 23.8774 36.1881 25.0542 34.6601 25.878C33.132 26.7018 31.4102 27.1136 29.4944 27.1136ZM29.4944 21.1119C30.4295 21.1119 31.2049 20.7589 31.8207 20.0528C32.4593 19.3232 32.7785 18.2876 32.7785 16.946C32.7785 15.6045 32.4593 14.5806 31.8207 13.8746C31.2049 13.1685 30.4409 12.8154 29.5287 12.8154C28.6164 12.8154 27.8524 13.1685 27.2366 13.8746C26.6209 14.5806 26.313 15.6045 26.313 16.946C26.313 18.3111 26.6095 19.3467 27.2024 20.0528C27.7954 20.7589 28.5594 21.1119 29.4944 21.1119Z" fill="url(#paint1_linear_1_61)"/>
<path d="M49.0192 0.74139V26.8665H42.3141V0.74139H49.0192Z" fill="url(#paint2_linear_1_61)"/>
<path d="M51.7428 16.946C51.7428 14.8984 52.0963 13.1096 52.8033 11.5798C53.5331 10.0499 54.5138 8.87313 55.7453 8.04936C56.9997 7.2256 58.3909 6.81371 59.9189 6.81371C61.2416 6.81371 62.382 7.08438 63.3398 7.62571C64.2977 8.16704 65.0389 8.89666 65.5634 9.81457V7.06084H72.2685V26.8665H65.5634V24.1128C65.0389 25.0307 64.2863 25.7603 63.3056 26.3016C62.3478 26.843 61.2188 27.1136 59.9189 27.1136C58.3909 27.1136 56.9997 26.7018 55.7453 25.878C54.5138 25.0542 53.5331 23.8774 52.8033 22.3476C52.0963 20.7942 51.7428 18.9937 51.7428 16.946ZM65.5634 16.946C65.5634 15.6751 65.2213 14.6748 64.5372 13.9452C63.8758 13.2155 63.0547 12.8507 62.0741 12.8507C61.0706 12.8507 60.2382 13.2155 59.5768 13.9452C58.9154 14.6513 58.5847 15.6515 58.5847 16.946C58.5847 18.217 58.9154 19.229 59.5768 19.9822C60.2382 20.7118 61.0706 21.0766 62.0741 21.0766C63.0547 21.0766 63.8758 20.7118 64.5372 19.9822C65.2213 19.2526 65.5634 18.2405 65.5634 16.946Z" fill="url(#paint3_linear_1_61)"/>
<path d="M82.7943 10.556C83.5469 9.42623 84.4591 8.53185 85.531 7.87284C86.6029 7.21383 87.7546 6.88432 88.9862 6.88432V14.2629H87.1047C85.6451 14.2629 84.5618 14.5571 83.8548 15.1455C83.1478 15.7339 82.7943 16.7577 82.7943 18.217V26.8665H76.0892V7.06084H82.7943V10.556Z" fill="url(#paint4_linear_1_61)"/>
<path d="M95.2214 11.0855C95.8371 9.97933 96.7494 9.06142 97.9581 8.3318C99.1897 7.57864 100.615 7.20206 102.234 7.20206C103.899 7.20206 105.404 7.61394 106.75 8.43771C108.118 9.26147 109.19 10.4265 109.966 11.9328C110.741 13.4156 111.129 15.1455 111.129 17.1225C111.129 19.076 110.741 20.8177 109.966 22.3476C109.19 23.8774 108.118 25.066 106.75 25.9133C105.404 26.7606 103.899 27.1842 102.234 27.1842C100.638 27.1842 99.2239 26.8194 97.9923 26.0898C96.7836 25.3367 95.8599 24.407 95.2214 23.3008V36.0456H92.1083V7.5198H95.2214V11.0855ZM107.947 17.1225C107.947 15.6633 107.662 14.3924 107.092 13.3097C106.522 12.227 105.746 11.4033 104.766 10.8384C103.808 10.2735 102.747 9.99109 101.584 9.99109C100.444 9.99109 99.3835 10.2853 98.4028 10.8737C97.445 11.4386 96.6696 12.2741 96.0766 13.3803C95.5064 14.463 95.2214 15.7221 95.2214 17.1579C95.2214 18.6171 95.5064 19.8998 96.0766 21.006C96.6696 22.0887 97.445 22.9242 98.4028 23.5126C99.3835 24.0775 100.444 24.3599 101.584 24.3599C102.747 24.3599 103.808 24.0775 104.766 23.5126C105.746 22.9242 106.522 22.0887 107.092 21.006C107.662 19.8998 107.947 18.6053 107.947 17.1225Z" fill="url(#paint5_linear_1_61)"/>
<path d="M116.834 4.37772C116.241 4.37772 115.74 4.1659 115.329 3.74225C114.918 3.3186 114.713 2.8008 114.713 2.18886C114.713 1.57692 114.918 1.05913 115.329 0.635476C115.74 0.211825 116.241 0 116.834 0C117.404 0 117.883 0.211825 118.271 0.635476C118.682 1.05913 118.887 1.57692 118.887 2.18886C118.887 2.8008 118.682 3.3186 118.271 3.74225C117.883 4.1659 117.404 4.37772 116.834 4.37772ZM118.339 7.5198V26.8665H115.226V7.5198H118.339Z" fill="url(#paint6_linear_1_61)"/>
<path d="M126.758 11.0855C127.374 9.97933 128.286 9.06142 129.495 8.3318C130.726 7.57864 132.152 7.20206 133.771 7.20206C135.436 7.20206 136.941 7.61394 138.287 8.43771C139.655 9.26147 140.727 10.4265 141.502 11.9328C142.278 13.4156 142.666 15.1455 142.666 17.1225C142.666 19.076 142.278 20.8177 141.502 22.3476C140.727 23.8774 139.655 25.066 138.287 25.9133C136.941 26.7606 135.436 27.1842 133.771 27.1842C132.175 27.1842 130.761 26.8194 129.529 26.0898C128.32 25.3367 127.397 24.407 126.758 23.3008V36.0456H123.645V7.5198H126.758V11.0855ZM139.484 17.1225C139.484 15.6633 139.199 14.3924 138.629 13.3097C138.059 12.227 137.283 11.4033 136.303 10.8384C135.345 10.2735 134.284 9.99109 133.121 9.99109C131.981 9.99109 130.92 10.2853 129.94 10.8737C128.982 11.4386 128.206 12.2741 127.613 13.3803C127.043 14.463 126.758 15.7221 126.758 17.1579C126.758 18.6171 127.043 19.8998 127.613 21.006C128.206 22.0887 128.982 22.9242 129.94 23.5126C130.92 24.0775 131.981 24.3599 133.121 24.3599C134.284 24.3599 135.345 24.0775 136.303 23.5126C137.283 22.9242 138.059 22.0887 138.629 21.006C139.199 19.8998 139.484 18.6053 139.484 17.1225Z" fill="url(#paint7_linear_1_61)"/>
<path d="M163.868 16.4518C163.868 17.0637 163.834 17.7109 163.765 18.3935H148.782C148.896 20.2999 149.523 21.7945 150.663 22.8771C151.826 23.9363 153.229 24.4658 154.871 24.4658C156.216 24.4658 157.334 24.1481 158.223 23.5126C159.136 22.8536 159.774 21.9828 160.139 20.9001H163.492C162.99 22.7595 161.986 24.2775 160.481 25.4543C158.976 26.6076 157.106 27.1842 154.871 27.1842C153.092 27.1842 151.495 26.7724 150.081 25.9486C148.69 25.1248 147.596 23.9598 146.797 22.4535C145.999 20.9236 145.6 19.1584 145.6 17.1579C145.6 15.1573 145.988 13.4038 146.763 11.8975C147.539 10.3912 148.622 9.23794 150.013 8.43771C151.427 7.61394 153.046 7.20206 154.871 7.20206C156.65 7.20206 158.223 7.60218 159.592 8.4024C160.96 9.20263 162.009 10.3088 162.739 11.721C163.492 13.1096 163.868 14.6866 163.868 16.4518ZM160.652 15.781C160.652 14.5571 160.39 13.5097 159.865 12.6389C159.341 11.7445 158.622 11.0738 157.71 10.6266C156.821 10.1558 155.829 9.92049 154.734 9.92049C153.16 9.92049 151.815 10.4383 150.697 11.4739C149.603 12.5095 148.975 13.9452 148.816 15.781H160.652Z" fill="url(#paint8_linear_1_61)"/>
<defs>
<linearGradient id="paint0_linear_1_61" x1="-79.9802" y1="17.1107" x2="-55.7552" y2="95.565" gradientUnits="userSpaceOnUse">
<stop stop-color="#F27F3E"/>
<stop offset="0.473958" stop-color="#B75377"/>
<stop offset="1" stop-color="#6534A4"/>
<stop offset="1" stop-color="#6534A4"/>
<stop offset="1" stop-color="#F27F3E"/>
</linearGradient>
<linearGradient id="paint1_linear_1_61" x1="-79.9802" y1="17.1107" x2="-55.7552" y2="95.565" gradientUnits="userSpaceOnUse">
<stop stop-color="#F27F3E"/>
<stop offset="0.473958" stop-color="#B75377"/>
<stop offset="1" stop-color="#6534A4"/>
<stop offset="1" stop-color="#6534A4"/>
<stop offset="1" stop-color="#F27F3E"/>
</linearGradient>
<linearGradient id="paint2_linear_1_61" x1="-79.9802" y1="17.1107" x2="-55.7552" y2="95.565" gradientUnits="userSpaceOnUse">
<stop stop-color="#F27F3E"/>
<stop offset="0.473958" stop-color="#B75377"/>
<stop offset="1" stop-color="#6534A4"/>
<stop offset="1" stop-color="#6534A4"/>
<stop offset="1" stop-color="#F27F3E"/>
</linearGradient>
<linearGradient id="paint3_linear_1_61" x1="-79.9802" y1="17.1107" x2="-55.7552" y2="95.565" gradientUnits="userSpaceOnUse">
<stop stop-color="#F27F3E"/>
<stop offset="0.473958" stop-color="#B75377"/>
<stop offset="1" stop-color="#6534A4"/>
<stop offset="1" stop-color="#6534A4"/>
<stop offset="1" stop-color="#F27F3E"/>
</linearGradient>
<linearGradient id="paint4_linear_1_61" x1="-79.9802" y1="17.1107" x2="-55.7552" y2="95.565" gradientUnits="userSpaceOnUse">
<stop stop-color="#F27F3E"/>
<stop offset="0.473958" stop-color="#B75377"/>
<stop offset="1" stop-color="#6534A4"/>
<stop offset="1" stop-color="#6534A4"/>
<stop offset="1" stop-color="#F27F3E"/>
</linearGradient>
<linearGradient id="paint5_linear_1_61" x1="-79.9802" y1="17.1107" x2="-55.7552" y2="95.565" gradientUnits="userSpaceOnUse">
<stop stop-color="#F27F3E"/>
<stop offset="0.473958" stop-color="#B75377"/>
<stop offset="1" stop-color="#6534A4"/>
<stop offset="1" stop-color="#6534A4"/>
<stop offset="1" stop-color="#F27F3E"/>
</linearGradient>
<linearGradient id="paint6_linear_1_61" x1="-79.9802" y1="17.1107" x2="-55.7552" y2="95.565" gradientUnits="userSpaceOnUse">
<stop stop-color="#F27F3E"/>
<stop offset="0.473958" stop-color="#B75377"/>
<stop offset="1" stop-color="#6534A4"/>
<stop offset="1" stop-color="#6534A4"/>
<stop offset="1" stop-color="#F27F3E"/>
</linearGradient>
<linearGradient id="paint7_linear_1_61" x1="-79.9802" y1="17.1107" x2="-55.7552" y2="95.565" gradientUnits="userSpaceOnUse">
<stop stop-color="#F27F3E"/>
<stop offset="0.473958" stop-color="#B75377"/>
<stop offset="1" stop-color="#6534A4"/>
<stop offset="1" stop-color="#6534A4"/>
<stop offset="1" stop-color="#F27F3E"/>
</linearGradient>
<linearGradient id="paint8_linear_1_61" x1="-79.9802" y1="17.1107" x2="-55.7552" y2="95.565" gradientUnits="userSpaceOnUse">
<stop stop-color="#F27F3E"/>
<stop offset="0.473958" stop-color="#B75377"/>
<stop offset="1" stop-color="#6534A4"/>
<stop offset="1" stop-color="#6534A4"/>
<stop offset="1" stop-color="#F27F3E"/>
</linearGradient>
</defs>
</svg>
